<?xml version="1.0" encoding="UTF-8"?>
<svg xmlns="http://www.w3.org/2000/svg" xmlns:xlink="http://www.w3.org/1999/xlink" width="1920pt" height="1080pt" viewBox="0 0 1920 1080">
<rect x="-192" y="-108" width="2304" height="1296" fill="rgb(0%, 0%, 0%)" fill-opacity="0"/>
<path fill-rule="nonzero" fill="rgb(91.372681%, 91.372681%, 91.372681%)" fill-opacity="1" d="M 435.878906 230.945312 L 1514.09375 230.945312 C 1394.90625 228.921875 1281.796875 279.511719 1200.640625 369.691406 C 1115.121094 464.714844 1073.835938 589.242188 1046.742188 712.035156 C 1020.460938 831.144531 1006.363281 954.03125 1005.84375 1079.441406 L 944.128906 1079.441406 C 943.609375 954.03125 929.511719 831.144531 903.230469 712.035156 C 876.136719 589.242188 834.847656 464.714844 749.332031 369.691406 C 668.175781 279.511719 555.066406 228.921875 435.878906 230.945312 Z M 435.878906 230.945312 "/>
<path fill-rule="nonzero" fill="rgb(100%, 100%, 100%)" fill-opacity="1" d="M 506.554688 70.109375 L 1444.769531 70.109375 C 1452.691406 77.996094 1460.039062 86.429688 1466.769531 95.351562 C 1502.472656 142.691406 1519.554688 201.492188 1514.769531 260.589844 L 436.554688 260.589844 C 431.769531 201.492188 448.851562 142.691406 484.554688 95.351562 C 491.285156 86.429688 498.636719 77.996094 506.554688 70.109375 Z M 506.554688 70.109375 "/>
<path fill-rule="nonzero" fill="rgb(36.862183%, 36.862183%, 36.862183%)" fill-opacity="1" d="M 433.308594 261.484375 L 1516.660156 261.484375 L 1516.660156 245.828125 L 433.308594 245.828125 Z M 433.308594 261.484375 "/>
</svg>
