<?xml version="1.0" encoding="UTF-8"?>
<svg xmlns="http://www.w3.org/2000/svg" xmlns:xlink="http://www.w3.org/1999/xlink" width="1920pt" height="1080pt" viewBox="0 0 1920 1080">
<rect x="-192" y="-108" width="2304" height="1296" fill="rgb(0%, 0%, 0%)" fill-opacity="0"/>
<path fill-rule="nonzero" fill="rgb(100%, 100%, 100%)" fill-opacity="1" d="M 246.765625 141.851562 L 245.578125 0.5625 L 1703.558594 2.675781 L 1703.5 141.851562 C 1542.46875 139.617188 1389.652344 195.519531 1280.007812 295.164062 C 1164.46875 400.171875 1108.683594 537.769531 1072.078125 673.460938 C 1036.570312 805.074219 1017.527344 940.863281 1016.824219 1079.441406 L 933.441406 1079.441406 C 932.738281 940.863281 913.695312 805.074219 878.1875 673.460938 C 841.582031 537.769531 785.800781 400.171875 670.257812 295.164062 C 560.613281 195.519531 407.796875 139.617188 246.765625 141.851562 Z M 246.765625 141.851562 "/>
<path fill="none" stroke-width="0.5" stroke-linecap="butt" stroke-linejoin="miter" stroke="rgb(100%, 100%, 100%)" stroke-opacity="1" stroke-miterlimit="4" d="M 1.188025 141.290563 L 0.000525 0.0015 L 1457.980994 2.114781 L 1457.9224 141.290563 C 1296.89115 139.056188 1144.074744 194.962438 1034.430212 294.606969 C 918.89115 399.610875 863.105994 537.208531 826.500525 672.899938 C 790.992713 804.513219 771.949744 940.302281 771.246619 1078.880406 L 687.863806 1078.880406 C 687.160681 940.302281 668.117713 804.513219 632.6099 672.899938 C 596.004431 537.208531 540.223181 399.610875 424.680213 294.606969 C 315.035681 194.962438 162.219275 139.056188 1.188025 141.290563 Z M 1.188025 141.290563 " transform="matrix(1, 0, 0, 1, 245.5776, 0.561)"/>
</svg>
