<?xml version="1.0" encoding="UTF-8"?>
<svg xmlns="http://www.w3.org/2000/svg" xmlns:xlink="http://www.w3.org/1999/xlink" width="1920pt" height="1080pt" viewBox="0 0 1920 1080">
<rect x="-192" y="-108" width="2304" height="1296" fill="rgb(0%, 0%, 0%)" fill-opacity="0"/>
<path fill-rule="nonzero" fill="rgb(100%, 100%, 100%)" fill-opacity="1" d="M 435.878906 230.945312 L 435 0.5625 L 1514.136719 2.476562 L 1514.09375 230.945312 C 1394.90625 228.921875 1281.796875 279.511719 1200.640625 369.691406 C 1115.121094 464.714844 1073.835938 589.242188 1046.742188 712.035156 C 1020.460938 831.144531 1006.363281 954.03125 1005.84375 1079.441406 L 944.128906 1079.441406 C 943.609375 954.03125 929.511719 831.144531 903.230469 712.035156 C 876.136719 589.242188 834.847656 464.714844 749.332031 369.691406 C 668.175781 279.511719 555.066406 228.921875 435.878906 230.945312 Z M 435.878906 230.945312 "/>
<path fill="none" stroke-width="0.5" stroke-linecap="butt" stroke-linejoin="miter" stroke="rgb(100%, 100%, 100%)" stroke-opacity="1" stroke-miterlimit="4" d="M 0.880106 230.384313 L 0.0012 0.0015 L 1079.137919 1.915563 L 1079.09495 230.384313 C 959.90745 228.360875 846.798075 278.954625 765.641825 369.130406 C 680.1262 464.153844 638.837138 588.681188 611.743388 711.474156 C 585.462138 830.587438 571.364481 953.47025 570.84495 1078.880406 L 509.130106 1078.880406 C 508.610575 953.47025 494.512919 830.587438 468.231669 711.474156 C 441.137919 588.681188 399.848856 464.153844 314.333231 369.130406 C 233.176981 278.954625 120.067606 228.360875 0.880106 230.384313 Z M 0.880106 230.384313 " transform="matrix(1, 0, 0, 1, 434.9988, 0.561)"/>
<path fill="none" stroke-width="4" stroke-linecap="butt" stroke-linejoin="miter" stroke="rgb(0%, 0%, 0%)" stroke-opacity="1" stroke-miterlimit="4" d="M -0.00133125 -0.00069375 L 1081.170544 -0.00069375 " transform="matrix(1, 0, 0, 1, 433.9818, 230.1921)"/>
</svg>
